<?xml version="1.0" encoding="UTF-8"?>
<svg id="Layer_1" xmlns="http://www.w3.org/2000/svg" xmlns:xlink="http://www.w3.org/1999/xlink" version="1.1" viewBox="0 0 8410.7 1308.1">
  <!-- Generator: Adobe Illustrator 29.2.1, SVG Export Plug-In . SVG Version: 2.1.0 Build 116)  -->
  <defs>
    <style>
      .st0 {
        fill: #0074ff;
      }

      .st1 {
        display: none;
        fill: #fff;
      }
    </style>
  </defs>
  <g id="d5779191-797a-4b16-8f3b-a4d91e7f2208">
    <rect class="st1" x="3654.1" y="132.5" width="1080" height="1080" vector-effect="non-scaling-stroke"/>
  </g>
  <g>
    <path class="st0" d="M1474.9,1.3c-164.1,11-315.5,71-439.4,174.1-48.1,40.2-88.5,83.2-132.2,141-25.5,33.7-116.7,151.6-142,183.3-25.9,32.6-50.3,56.8-86.8,86.1-76.7,61.4-159.9,89.4-244,82.4-62.7-5.3-121.8-22.7-172.2-51.1-56.7-31.7-113-78.9-211.5-177.2L.9,394.4l-.6,390c-.4,214.5-.4,414.7,0,444.9l.8,55h2354.8l.9-73.1c1.3-92.3-.3-431.3-1.9-459.9-13.4-222.8-120.8-427-298.9-568.7C1906.7,63.7,1717.3-1,1522.3,0c-17.2.1-38.5.8-47.4,1.3Z" vector-effect="non-scaling-stroke"/>
    <path d="M2730.7,800.8v488.8l270.1-.3,270-.4v-132.6l-188.8-.4-188.9-.3V312h-162.5v488.8Z" vector-effect="non-scaling-stroke"/>
    <path d="M5578.8,800.8v488.8l77.1-.3,77-.4.4-262.7.3-262.7,19.9-7.9c36.1-14.4,63-21.3,93.1-23.8,27.9-2.3,51.3,1.2,71.6,10.8,9.1,4.3,13,7.3,22.1,16.5,14.6,14.7,21.8,28.9,28.1,54.7,2.2,9.2,2.3,23.7,2.7,242.8l.4,233,77.1-.3,77-.4.4-229.4c.4-242.4.4-245-5.7-275.3-9.2-46.4-29.1-85-59.5-115.4-32.9-32.8-72-51.9-125.6-61-17-3-64.1-4.2-79.7-1.9-15.6,2.1-38.5,7.8-55.5,13.6-16.5,5.7-44.2,19-56.5,27l-9.1,6-.4-170.3-.3-170.2h-154.7v488.8Z" vector-effect="non-scaling-stroke"/>
    <path d="M7589,305.6c-29.2,8.4-51.2,31.8-60.1,63.8-3.6,13.3-3.2,40.6.6,53.3,10.7,33.9,35,59.5,63.4,66.9,9.7,2.5,27.7,2.5,37.4,0,21.8-5.7,42.4-23,53-44.8,7.9-16.1,10.1-24.7,11-43,2.2-46.5-23.7-86.4-62.8-96.6-10.8-2.9-32.5-2.6-42.8.4Z" vector-effect="non-scaling-stroke"/>
    <path d="M6545.6,584.2c-68.6,5.2-124.5,30.8-170.4,78.1-49.4,51-80.3,123.6-91.6,214.9-2.9,22.6-3.8,73.8-1.9,101.4,7.7,114.7,38.1,198.2,92.3,254,55.4,56.9,120.9,79.8,214.1,74.9,53-2.7,73.8-7.7,125.8-29.5,42.8-18.1,67.6-33.8,95.5-60.8,14.4-13.8,33-35.2,32.4-37.2s-97.6-103.2-98.5-103.2-6.1,6.1-12.5,13.6c-6.5,7.5-18.5,20.1-26.6,27.9-45.4,43.8-84.1,60.6-140.3,61-22.5.1-28.9-1.2-44.1-9-19.4-9.9-33.4-25.9-46.9-53.3-17.8-36.4-26.5-74.6-28.2-123.2l-.8-23h380l.6-3c1.2-5.3,4.4-32.6,5.7-49,6.6-83.2-1.9-145.6-27.4-199-12.7-26.6-24.8-44.2-44.6-64.7-36-37.3-85-60.4-145.3-68.4-15.5-1.9-54.1-3.4-67.2-2.5ZM6580.7,714c14.4,2.1,23.9,5.2,36.3,11.7,33.1,17.4,55.4,62,58.2,116.6l.8,15.3h-232.2l.8-15.3c1.7-32.2,12.3-62.4,30.8-87.2,25.7-34.7,59.9-48,105.3-41.1Z" vector-effect="non-scaling-stroke"/>
    <path d="M5140.1,607.1c-38.1,3.6-69.9,12.6-101.5,28.6-72.4,36.8-124.4,101-152.5,188.2-33.9,105.4-26.3,231.8,19.8,323.2,13.5,27.2,28.3,48,49,69.4,42.6,44.2,96.1,71.4,160.5,81.4,29.6,4.7,88.4,4,126.1-1.4,77.1-11,140.8-55.6,189.8-132.7l6.8-10.8-4.3-3.5c-2.3-2.1-27.4-22.7-55.6-46l-51.5-42.5-9.1,13.9c-37.6,56.8-74.1,86.2-117.9,95-17.5,3.6-42,3.6-55.8.1-55.8-14.3-98.3-77.2-111.8-165.5-3.9-25.3-4.3-74.1-.6-99.2,8.1-56.7,27.2-101.7,55.6-131.4,29.2-30.4,58-40.8,103.5-37,10,.8,22.7,2.6,28.3,4,23.5,5.8,46.5,21.6,71.1,48.9,7.7,8.4,14.4,15.5,14.9,15.5s21.3-22,46.3-48.7,47.1-50.6,49.1-52.8l3.9-4.2-16.8-16.8c-48.9-49.4-98-70.2-179.1-75.8-20.9-1.4-52.3-1.4-68.2.1Z" vector-effect="non-scaling-stroke"/>
    <path d="M7335.3,607.4c-28.3,6-66.8,26.3-102.2,53.7-16.9,13.3-41.1,35.7-53.2,49.7-10.1,11.7-10.4,11.8-11.2,8.3-.5-1.9-1.2-16-1.7-30.9-.6-26.3-2.6-42.8-7.7-64.3l-1.6-7.1-72.7-.4-72.5-.3.9,5.5c.5,3.1,1.3,155.3,1.8,338.4l.8,332.8,77.7.4,77.7.3-.3-220.9-.3-220.9,7.7-12.6c19.6-32.1,46.4-57.6,74.4-70.5,16.9-7.8,31.8-11,55.5-11.7,23.5-.8,33.8.5,58.4,7.5,8.3,2.3,15.3,3.9,15.6,3.6s6.4-33.3,13.6-73.3,13.5-74.4,13.9-76.3c.6-3.1.1-3.9-3-5.1-14.9-5.7-56.3-9.1-71.9-5.8Z" vector-effect="non-scaling-stroke"/>
    <path d="M3618.3,609.2c-64,5.2-115.6,22-171.9,55.5-20.1,12-47.8,31.5-47.4,33.3.1.8,14.7,28.3,32.2,61.2l32,59.7,8.6-7.3c63.4-53.4,115.4-74.6,182.9-74.6s93.2,19,102.7,55.2c1.4,6,1.9,15.2,1.9,40.4v32.9l-6.8.6c-3.8.4-14.4,1.3-23.8,2.1-76.7,6.2-159.2,21.1-205.7,36.9-43.4,14.9-80.3,36.8-106.9,63.2-30.3,30.2-46.1,71-49.4,126.7-4,68.1,12.7,123.9,48,159.4,22.5,22.6,50.4,36.9,87.5,44.3,13.1,2.7,18.1,3,51.6,3,28.7-.1,40.3-.6,51.7-2.3,47.2-7.4,90-26.3,137.8-60.8,8.8-6.4,16.1-11.6,16.4-11.6s1.2,2.7,2.1,6.2c9.6,35.9,31.3,59.8,61.1,67.3,7,1.8,12.6,2.1,32.5,1.4,35.2-1.2,62.7-5.8,95.7-16.6,31.6-10.1,63-26,62.8-31.5,0-1.6-3.4-18.7-7.4-38-6.8-31.8-7.7-35.1-10-35-1.4.1-9.6,1.6-18.2,3.1-19.5,3.6-32.2,3.1-41.7-1.7-7.4-3.8-9.6-6-13.5-13.8-7.1-14.3-6.9-8.2-7.8-200.3-.6-127.4-1.3-180.4-2.5-187.8-7.9-52.6-22.2-85.3-49.4-112.6-34.1-34.2-88.8-52.8-171.1-58.4-17.9-1.2-61.9-1.4-74.1-.4ZM3759.4,1039.8v77.7l-5.5,5.1c-21.3,19.6-60.7,43.3-85.9,51.7-19.4,6.4-29.6,7.9-54.2,7.9-17.8-.1-24.6-.6-31.2-2.5-38.5-10.5-55-36.9-52.9-84.6,2.2-49.1,14.4-74.1,45.8-93.6,17-10.7,44.7-20.4,75.4-26.5,25.2-5.1,84.4-12.6,101.1-13h7.4c0-.1,0,77.7,0,77.7Z" vector-effect="non-scaling-stroke"/>
    <path d="M4450,609.6c-44.3,5.7-96.8,25.1-133.4,49.1-12,7.9-13.4,8.1-13.5,1.4,0-3.5-5.2-29.8-7.7-38.7l-1.6-5.5h-73.4c-69.4,0-73.4.1-72.8,2.2.4,1.3,1.6,10.3,2.6,19.9s2.3,20.1,2.9,23.4c.4,3.2,1.2,146.5,1.7,318.5l.8,312.6,77.1.4,77,.3v-518.4l14.7-7.1c38.6-19,87-30.8,125.7-30.8s87.9,27.9,102.4,85.8c1.8,7.7,2.2,31.3,2.7,239.2l.8,230.7h154.7l.4-215.1c.4-217-.3-254-4.3-277.5-13.3-76.8-53.4-133.5-117.3-165.5-14.9-7.5-37.2-15.5-54.5-19.6-24.8-5.7-62.5-8.1-85-5.2Z" vector-effect="non-scaling-stroke"/>
    <path d="M7532.7,955.7l.4,337.1,77.1.4,77,.3v-674.7h-154.7l.3,337Z" vector-effect="non-scaling-stroke"/>
    <path d="M7833,621.6c.5.9,46.8,74.7,103,164.1,92.8,147.8,101.8,162.6,100.4,165.1-.9,1.6-53.3,78.6-116.5,171.3s-114.9,169.3-114.9,169.9c0,1,25.5,1.4,83.6,1.4h83.6l69.5-122.7c38.2-67.5,69.8-122.3,70.2-121.9s30.3,55.8,66.2,122.7l65.4,121.9h83.7c57.8,0,83.6-.4,83.6-1.4s-49.9-75.8-110.9-166.7c-61-91-111.3-166-111.8-166.9-.5-.8,46.1-72.7,110.2-169.4,61.1-92.3,111.1-168.1,111.1-168.5s-37.8-.5-84.1-.5h-84.2l-62.9,119.6c-34.7,65.8-63.4,119.2-63.8,118.7-.5-.6-26.3-54.5-57.2-119.7l-56.4-118.6h-84.2c-67.2,0-84.2.4-83.5,1.6Z" vector-effect="non-scaling-stroke"/>
  </g>
</svg>